# 3ds Max Wavefront OBJ Exporter v0.97b - (c)2007 guruware
# File Created: 12.05.2015 22:20:54

mtllib straight_wall.mtl

#
# object straight_wall_tile
#

v  14.1235 0.0001 -196.9167
v  14.1235 39.7247 -196.9167
v  14.1235 39.7247 -3.0833
v  14.1235 0.0001 -3.0833
v  13.3235 40.5247 -196.9167
v  9.7326 40.5247 -196.9167
v  9.7326 40.5247 -3.0833
v  13.3235 40.5247 -3.0833
v  -2.6827 25.8801 -196.9167
v  -5.2450 18.6927 -196.9167
v  -5.2397 18.6908 -3.0833
v  -2.6194 25.8820 -3.0833
v  -14.0064 3.8496 -196.9167
v  -14.1235 0.0001 -196.9167
v  -14.1235 0.0001 -3.0833
v  -14.0064 3.8496 -3.0833
v  -6.6456 15.8385 -196.9167
v  -11.5004 8.2637 -196.9167
v  -11.5004 8.2637 -3.0833
v  -6.6456 15.8385 -3.0833
v  0.7586 38.8255 -196.9167
v  -1.6879 28.9392 -196.9167
v  -1.6879 28.9392 -3.0833
v  0.7586 38.8255 -3.0833
v  2.1418 40.5247 -3.0833
v  2.1418 40.5247 -196.9167
v  -13.1910 6.4232 -196.9167
v  -13.1910 6.4232 -3.0833
v  -4.2568 15.1578 -200.0000
v  -4.2568 15.1578 -196.9167
v  -3.2450 17.2196 -196.9167
v  -3.2450 17.2197 -200.0000
v  0.4072 27.8131 -0.0000
v  0.4072 27.8131 -3.0833
v  -0.2678 25.6087 -3.0833
v  -0.2678 25.6087 -0.0000
v  -3.7182 17.0581 -196.9167
v  -4.4185 15.6310 -196.9167
v  -4.4185 15.6310 -3.0833
v  -3.7182 17.0581 -3.0833
v  -0.5007 26.0511 -3.0833
v  -0.0352 27.5801 -3.0833
v  -0.0352 27.5801 -196.9167
v  -0.5007 26.0511 -196.9167
v  -5.5417 15.6617 -196.9167
v  -5.5417 15.6617 -200.0000
v  -4.4291 17.9270 -3.0833
v  -3.2450 17.2197 -3.0833
v  -3.2450 17.2197 -0.0000
v  -4.4291 17.9270 -0.0000
v  -0.8017 28.3097 -3.0833
v  -0.8017 28.3097 -0.0000
v  -1.6061 25.9025 -196.9167
v  -0.2655 25.6099 -196.9167
v  -0.2655 25.6099 -200.0000
v  -1.6061 25.9025 -200.0000
v  6.5326 40.5247 -196.9167
v  6.5326 40.5247 -3.0833
v  2.3021 40.0511 -200.0000
v  2.3021 40.0511 -196.9167
v  6.3422 40.0624 -196.9167
v  6.3413 40.0628 -200.0000
v  13.1322 40.0627 -0.0000
v  13.1322 40.0627 -3.0833
v  9.9231 40.0624 -3.0833
v  9.9240 40.0627 -0.0000
v  6.9792 38.1710 -199.9995
v  6.9773 38.1773 -196.9454
v  9.2879 38.1769 -196.9441
v  9.2860 38.1710 -199.9995
v  9.2860 38.1710 -0.0005
v  9.2879 38.1769 -3.0558
v  6.9773 38.1772 -3.0546
v  6.9792 38.1710 -0.0005
v  6.8707 39.5334 -199.9999
v  6.8714 39.5333 -196.9282
v  9.3946 39.5334 -0.0001
v  9.3938 39.5332 -3.0723
v  8.9326 39.7263 -196.9278
v  8.9326 39.7263 -3.0722
v  7.3326 39.7264 -3.0717
v  7.3326 39.7264 -196.9283
v  -4.7954 17.5867 -196.9167
v  -4.7954 17.5867 -3.0833
v  -1.5827 26.3928 -3.0833
v  -1.6487 26.4007 -196.9167
v  -4.7398 18.6991 -0.0000
v  -4.7398 18.6991 -3.0833
v  -2.3079 25.5491 -200.0000
v  -2.3079 25.5491 -196.9167
v  -6.3484 15.4365 -200.0000
v  -6.3484 15.4365 -196.9167
v  -1.1924 29.0061 -0.0000
v  -1.1924 29.0061 -3.0833
v  -5.4958 16.1596 -3.0833
v  -5.4958 16.1596 -196.9167
v  -1.1172 27.9217 -196.9167
v  -1.1172 27.9217 -3.0833
v  13.1321 40.0628 -200.0000
v  13.1321 40.0628 -196.9167
v  13.6615 39.5334 -196.9167
v  13.6615 39.5334 -200.0000
v  13.6615 39.5334 -0.0000
v  13.6235 0.0001 -0.0000
v  13.6235 0.0001 -3.0833
v  13.6615 39.5334 -3.0833
v  2.3021 40.0511 -0.0000
v  6.3413 40.0627 -0.0000
v  6.3422 40.0624 -3.0833
v  2.3021 40.0511 -3.0833
v  -2.2473 25.5481 -0.0000
v  -2.2473 25.5481 -3.0833
v  -13.6237 -0.0151 -0.0000
v  -13.5135 3.7657 -0.0000
v  -13.5135 3.7657 -3.0833
v  -13.6237 -0.0151 -3.0833
v  -11.1043 7.9586 -0.0000
v  -6.3484 15.4365 -0.0000
v  -6.3484 15.4365 -3.0833
v  -11.1043 7.9586 -3.0833
v  1.2332 38.6682 -0.0000
v  1.2332 38.6682 -3.0833
v  -12.7584 6.1727 -0.0000
v  -12.7584 6.1727 -3.0833
v  -4.2568 15.1578 -0.0000
v  -4.2568 15.1578 -3.0833
v  -5.5417 15.6617 -0.0000
v  -5.5417 15.6617 -3.0833
v  -1.5447 25.8942 -0.0000
v  -1.5447 25.8942 -3.0833
v  6.8707 39.5334 -0.0001
v  6.8714 39.5333 -3.0718
v  8.9326 38.5287 -196.9446
v  8.9326 38.5287 -3.0554
v  7.3326 38.5290 -3.0541
v  13.6235 0.0001 -200.0000
v  13.6235 0.0001 -196.9167
v  9.9240 40.0628 -200.0000
v  9.9231 40.0624 -196.9167
v  -4.7451 18.7036 -200.0000
v  -4.7451 18.7036 -196.9167
v  -13.5135 3.7657 -200.0000
v  -13.6237 -0.0151 -200.0000
v  -13.6237 -0.0151 -196.9167
v  -13.5135 3.7657 -196.9167
v  -11.1043 7.9586 -200.0000
v  -11.1043 7.9586 -196.9167
v  1.2332 38.6683 -200.0000
v  -1.1924 29.0061 -200.0000
v  -1.1924 29.0061 -196.9167
v  1.2332 38.6683 -196.9167
v  -12.7584 6.1727 -200.0000
v  -12.7584 6.1727 -196.9167
v  0.4072 27.8131 -200.0000
v  0.4072 27.8130 -196.9167
v  -4.4297 17.9276 -200.0000
v  -4.4297 17.9276 -196.9167
v  -0.8017 28.3096 -200.0000
v  -0.8017 28.3097 -196.9167
v  7.3326 38.5291 -196.9459
v  9.3946 39.5334 -199.9999
v  9.3938 39.5332 -196.9277
# 162 vertices

vn 1.0000 0.0000 -0.0000
vn -0.0000 1.0000 0.0000
vn -0.9419 0.3360 0.0000
vn -0.9419 0.3358 0.0000
vn -0.9396 0.3422 0.0003
vn -0.9396 0.3424 0.0003
vn -0.9858 0.1678 0.0000
vn -0.9995 0.0304 0.0000
vn -0.8419 0.5396 0.0000
vn -0.7921 0.6103 0.0000
vn -0.8948 0.4466 0.0000
vn -0.9707 0.2402 0.0000
vn -0.7755 0.6313 0.0000
vn -0.8654 0.5011 -0.0000
vn -0.8654 0.5011 0.0000
vn -0.8977 0.4405 0.0000
vn -0.8977 0.4406 0.0000
vn -0.9562 0.2928 0.0000
vn -0.9566 0.2913 0.0000
vn 0.3651 0.9310 0.0000
vn -0.5128 -0.8585 -0.0000
vn -0.3800 -0.9250 -0.0000
vn 0.2132 0.9770 0.0000
vn 0.0000 1.0000 0.0000
vn -0.0028 1.0000 0.0000
vn -0.0028 1.0000 0.0001
vn -0.0029 1.0000 0.0001
vn -0.0001 1.0000 -0.0001
vn -0.0001 1.0000 0.0000
vn 0.0000 1.0000 -0.0001
vn 0.0001 1.0000 -0.0020
vn 0.0002 1.0000 -0.0021
vn -0.0000 1.0000 -0.0019
vn 0.0001 1.0000 0.0020
vn 0.0002 1.0000 0.0019
vn -0.0000 1.0000 0.0021
vn 0.9969 0.0790 0.0003
vn 0.9970 0.0778 -0.0003
vn 0.9969 0.0783 -0.0001
vn 0.9968 0.0794 0.0005
vn -0.9969 0.0790 -0.0003
vn -0.9970 0.0778 0.0002
vn -0.9969 0.0783 0.0001
vn -0.9968 0.0794 -0.0005
vn -0.7064 0.7078 0.0000
vn 0.7063 0.7079 0.0000
vn 0.7071 0.7071 -0.0001
vn 0.7070 0.7072 -0.0001
vn -0.7071 0.7071 0.0001
vn -0.7070 0.7072 0.0001
vn -0.7071 0.7072 0.0001
vn -0.9277 -0.3733 0.0000
vn -0.9264 -0.3765 0.0000
vn -0.9277 -0.3733 -0.0000
vn -0.4496 0.8932 0.0002
vn -0.4419 0.8970 0.0001
vn -0.4420 0.8970 0.0001
vn -0.4497 0.8932 0.0002
vn -0.4497 0.8932 0.0000
vn -0.2690 0.9632 0.0000
vn -0.8722 -0.4892 -0.0000
vn 0.7071 0.7071 0.0000
vn 1.0000 -0.0010 -0.0000
vn -0.0028 1.0000 -0.0000
vn -0.0029 1.0000 -0.0001
vn -0.0028 1.0000 -0.0001
vn -0.9397 0.3420 0.0000
vn -0.9996 0.0291 0.0000
vn -0.9862 0.1658 0.0000
vn -0.7920 0.6106 0.0000
vn -0.8438 0.5367 0.0000
vn -0.9699 0.2435 0.0000
vn -0.8996 0.4368 0.0000
vn -0.7912 0.6116 0.0000
vn -0.8651 0.5017 0.0000
vn -0.4405 -0.8977 -0.0000
vn 0.2182 0.9759 0.0000
vn -0.3011 -0.9536 -0.0000
vn 0.9969 0.0790 -0.0003
vn 0.9968 0.0794 -0.0005
vn 0.9969 0.0783 0.0001
vn 0.9970 0.0778 0.0003
vn -1.0000 0.0000 -0.0000
vn 0.7071 0.7071 0.0001
vn 0.7070 0.7072 0.0001
vn -0.4419 0.8970 0.0000
vn 0.0000 -0.0000 1.0000
vn 0.0085 0.0083 0.9999
vn 0.0091 0.0126 0.9999
vn 0.0006 -0.0014 1.0000
vn -0.0095 0.0132 0.9999
vn -0.0089 0.0086 0.9999
vn -0.0001 1.0000 0.0001
vn 0.0000 1.0000 0.0001
vn -0.9421 0.3354 0.0000
vn -0.9564 0.2920 0.0000
vn -0.5130 -0.8584 -0.0000
vn -0.5129 -0.8584 -0.0000
vn 0.4405 0.8977 0.0000
vn -0.3800 -0.9250 0.0000
vn 0.2913 0.9566 -0.0000
vn 0.3011 0.9536 -0.0001
vn 0.2913 0.9566 0.0000
vn 0.0002 1.0000 0.0000
vn -0.9969 0.0790 0.0003
vn -0.9968 0.0794 0.0005
vn -0.9969 0.0783 -0.0001
vn -0.9970 0.0778 -0.0002
vn -0.7071 0.7071 -0.0001
vn -0.7071 0.7072 -0.0001
vn -0.7070 0.7072 -0.0001
vn -0.9264 -0.3766 -0.0000
vn 0.0000 0.0000 -1.0000
vn -0.0000 -0.0000 -1.0000
vn -0.0089 0.0086 -0.9999
vn -0.0095 0.0132 -0.9999
vn 0.0006 -0.0014 -1.0000
vn 0.0091 0.0126 -0.9999
vn 0.0085 0.0083 -0.9999
vn -0.0000 0.0000 -1.0000
# 120 vertex normals

vt 0.9623 0.3024 0.0000
vt 0.9600 0.4961 0.0000
vt 0.0150 0.4847 0.0000
vt 0.0174 0.2910 0.0000
vt 0.9806 0.5596 0.0000
vt 0.9806 0.5770 0.0000
vt 0.0153 0.5771 0.0000
vt 0.0154 0.5597 0.0000
vt 0.0151 0.1563 0.0000
vt 0.0151 0.1191 0.0000
vt 0.9602 0.1192 0.0000
vt 0.9602 0.1565 0.0000
vt 0.0151 0.0188 0.0000
vt 0.0151 0.0000 0.0000
vt 0.9602 0.0000 0.0000
vt 0.9602 0.0188 0.0000
vt 0.0151 0.0880 0.0000
vt 0.0151 0.0441 0.0000
vt 0.9602 0.0441 0.0000
vt 0.9602 0.0880 0.0000
vt 0.0150 0.2364 0.0000
vt 0.0151 0.1867 0.0000
vt 0.9603 0.1867 0.0000
vt 0.9603 0.2364 0.0000
vt 0.9602 0.2474 0.0000
vt 0.0151 0.2474 0.0000
vt 0.0151 0.0319 0.0000
vt 0.9602 0.0319 0.0000
vt 0.0000 0.0997 0.0000
vt 0.0151 0.0997 0.0000
vt 0.0151 0.1074 0.0000
vt 0.0000 0.1074 0.0000
vt 0.9753 0.1755 0.0000
vt 0.9602 0.1755 0.0000
vt 0.9602 0.1677 0.0000
vt 0.9753 0.1677 0.0000
vt 0.9602 0.0997 0.0000
vt 0.9602 0.1074 0.0000
vt 0.0151 0.1755 0.0000
vt 0.0151 0.1677 0.0000
vt 0.0151 0.0938 0.0000
vt 0.0000 0.0938 0.0000
vt 0.9602 0.1133 0.0000
vt 0.9753 0.1075 0.0000
vt 0.9753 0.1133 0.0000
vt 0.9602 0.1810 0.0000
vt 0.9753 0.1810 0.0000
vt 0.0151 0.1619 0.0000
vt 0.0000 0.1677 0.0000
vt 0.0000 0.1619 0.0000
vt 0.9808 0.6071 0.0000
vt 0.9810 0.6285 0.0000
vt 0.0150 0.6292 0.0000
vt 0.0151 0.6077 0.0000
vt 0.9960 0.6285 0.0000
vt 0.9959 0.6071 0.0000
vt 0.0003 0.5597 0.0000
vt 0.0003 0.5771 0.0000
vt 0.9948 0.5960 0.0000
vt 0.9799 0.5960 0.0000
vt 0.9798 0.5882 0.0000
vt 0.9947 0.5882 0.0000
vt 0.0012 0.5885 0.0000
vt 0.0161 0.5885 0.0000
vt 0.0161 0.5963 0.0000
vt 0.0011 0.5963 0.0000
vt 0.9954 0.6017 0.0000
vt 0.9804 0.6017 0.0000
vt 0.0007 0.5826 0.0000
vt 0.0157 0.5826 0.0000
vt 0.9803 0.5824 0.0000
vt 0.0155 0.6022 0.0000
vt 0.0151 0.1132 0.0000
vt 0.9602 0.1622 0.0000
vt 0.9753 0.1192 0.0000
vt 0.0000 0.1563 0.0000
vt 0.0000 0.0880 0.0000
vt 0.9753 0.1867 0.0000
vt 0.9602 0.0938 0.0000
vt 0.0151 0.1811 0.0000
vt 0.9956 0.5596 0.0000
vt 0.9803 0.5541 0.0000
vt 0.9954 0.5541 0.0000
vt 0.0156 0.5542 0.0000
vt 0.0000 0.4845 0.0000
vt 0.0023 0.2909 0.0000
vt 0.0000 0.6292 0.0000
vt 0.0001 0.6077 0.0000
vt 0.9753 0.1565 0.0000
vt 0.9752 0.0000 0.0000
vt 0.9752 0.0188 0.0000
vt 0.9752 0.0441 0.0000
vt 0.9752 0.0880 0.0000
vt 0.9753 0.2364 0.0000
vt 0.9752 0.2474 0.0000
vt 0.9752 0.0319 0.0000
vt 0.9753 0.0997 0.0000
vt 0.9752 0.0938 0.0000
vt 0.9753 0.1622 0.0000
vt 0.0006 0.6022 0.0000
vt 0.0005 0.5542 0.0000
vt 0.9774 0.3026 0.0000
vt 0.9750 0.4962 0.0000
vt 0.9957 0.5770 0.0000
vt 0.0000 0.1191 0.0000
vt 0.0000 0.0188 0.0000
vt 0.0000 0.0000 0.0000
vt 0.0000 0.0441 0.0000
vt 0.0000 0.2364 0.0000
vt 0.0000 0.1867 0.0000
vt 0.0001 0.2474 0.0000
vt 0.0000 0.0319 0.0000
vt 0.0000 0.1755 0.0000
vt 0.0000 0.1132 0.0000
vt 0.0000 0.1811 0.0000
vt 0.9952 0.5825 0.0000
# 116 texture coords

g straight_wall_tile
usemtl wire_087225143
s 1
f 1/1/1 2/2/1 3/3/1 4/4/1 
s 3
f 5/5/2 6/6/2 7/7/2 8/8/2 
s 1
f 9/9/3 10/10/4 11/11/5 12/12/6 
f 13/13/7 14/14/8 15/15/8 16/16/7 
f 17/17/9 18/18/10 19/19/10 20/20/9 
f 21/21/11 22/22/12 23/23/12 24/24/11 
f 21/21/11 24/24/11 25/25/13 26/26/13 
f 18/18/10 27/27/14 28/28/15 19/19/10 
f 13/13/7 16/16/7 28/28/15 27/27/14 
f 29/29/16 30/30/17 31/31/16 32/32/16 
f 33/33/18 34/34/18 35/35/18 36/36/18 
f 37/31/16 38/30/16 39/37/16 40/38/16 
f 41/35/19 42/34/19 43/39/19 44/40/19 
s 2
f 45/41/20 30/30/20 29/29/20 46/42/20 
f 47/43/21 48/38/21 49/44/21 50/45/21 
f 51/46/22 34/34/22 33/33/22 52/47/22 
f 53/48/23 54/40/23 55/49/23 56/50/23 
s 6
f 57/51/2 26/52/24 25/53/2 58/54/2 
s 2
f 59/55/25 60/52/25 61/51/26 62/56/27 
s 1
f 63/57/28 64/8/29 65/7/28 66/58/30 
f 67/59/31 68/60/32 69/61/31 70/62/33 
f 71/63/34 72/64/35 73/65/34 74/66/36 
s 4
f 75/67/37 76/68/38 68/60/39 67/59/40 
f 77/69/41 78/70/42 72/64/43 71/63/44 
s 8
f 7/7/45 6/6/45 79/71/45 80/70/45 
s 1
f 57/51/46 58/54/46 81/72/46 82/68/46 
f 62/56/47 61/51/48 76/68/48 75/67/47 
s 8
f 66/58/49 65/7/50 78/70/51 77/69/49 
s 4
f 11/11/52 10/10/53 83/73/53 84/43/54 
f 9/9/55 12/12/56 85/74/57 86/48/58 
f 87/75/54 88/11/54 47/43/54 50/45/54 
f 89/76/59 90/9/59 53/48/59 56/50/59 
f 91/77/60 92/17/60 45/41/60 46/42/60 
f 93/78/61 94/23/61 51/46/61 52/47/61 
f 17/17/60 20/20/60 95/79/60 96/41/60 
f 23/23/61 22/22/61 97/80/61 98/46/61 
f 99/81/62 100/5/62 101/82/62 102/83/62 
f 2/82/62 5/5/62 8/8/62 3/84/62 
s 1
f 103/85/63 104/86/63 105/4/63 106/3/63 
s 2
f 107/87/64 108/88/65 109/54/66 110/53/25 
s 1
f 87/75/67 111/89/67 112/12/67 88/11/67 
f 113/90/68 114/91/69 115/16/69 116/15/68 
f 117/92/70 118/93/71 119/20/71 120/19/70 
f 93/78/72 121/94/73 122/24/73 94/23/72 
f 121/94/73 107/95/74 110/25/74 122/24/73 
f 123/96/75 117/92/70 120/19/70 124/28/75 
f 114/91/69 123/96/75 124/28/75 115/16/69 
f 125/97/16 49/44/16 48/38/16 126/37/16 
s 2
f 127/98/20 125/97/20 126/37/20 128/79/20 
f 84/43/76 83/73/76 37/31/76 40/38/76 
f 129/99/77 36/36/77 35/35/77 130/74/77 
f 98/46/78 97/80/78 43/39/78 42/34/78 
s 4
f 131/100/79 74/66/80 73/65/81 132/72/82 
f 80/70/83 79/71/83 133/61/83 134/64/83 
s 1
f 108/88/84 131/100/84 132/72/85 109/54/85 
s 4
f 111/89/86 129/99/86 130/74/86 112/12/86 
f 118/93/60 127/98/60 128/79/60 119/20/60 
f 63/57/62 103/101/62 106/84/62 64/8/62 
s off
f 4/4/87 3/3/87 106/3/87 105/4/87 
f 3/84/87 8/8/87 64/8/87 106/84/87 
f 8/8/87 7/7/87 65/7/87 64/8/87 
f 7/7/88 80/70/88 78/70/88 65/7/88 
f 80/70/89 134/64/89 72/64/89 78/70/89 
f 134/64/90 135/65/90 73/65/90 72/64/90 
f 135/65/91 81/72/91 132/72/91 73/65/91 
f 81/72/92 58/54/92 109/54/92 132/72/92 
f 58/54/87 25/53/87 110/53/87 109/54/87 
f 25/25/87 24/24/87 122/24/87 110/25/87 
f 24/24/87 23/23/87 94/23/87 122/24/87 
f 23/23/87 98/46/87 51/46/87 94/23/87 
f 98/46/87 42/34/87 34/34/87 51/46/87 
f 42/34/87 41/35/87 35/35/87 34/34/87 
f 41/35/87 85/74/87 130/74/87 35/35/87 
f 85/74/87 12/12/87 112/12/87 130/74/87 
f 12/12/87 11/11/87 88/11/87 112/12/87 
f 11/11/87 84/43/87 47/43/87 88/11/87 
f 84/43/87 40/38/87 48/38/87 47/43/87 
f 40/38/87 39/37/87 126/37/87 48/38/87 
f 39/37/87 95/79/87 128/79/87 126/37/87 
f 95/79/87 20/20/87 119/20/87 128/79/87 
f 20/20/87 19/19/87 120/19/87 119/20/87 
f 19/19/87 28/28/87 124/28/87 120/19/87 
f 28/28/87 16/16/87 115/16/87 124/28/87 
f 16/16/87 15/15/87 116/15/87 115/16/87 
s 1
f 136/102/63 102/103/63 101/2/63 137/1/63 
f 99/81/93 138/104/94 139/6/93 100/5/29 
f 89/76/95 140/105/95 141/10/95 90/9/95 
f 142/106/69 143/107/68 144/14/68 145/13/69 
f 91/77/71 146/108/70 147/18/70 92/17/71 
f 148/109/73 149/110/72 150/22/72 151/21/73 
f 60/26/74 59/111/74 148/109/73 151/21/73 
f 146/108/70 152/112/75 153/27/75 147/18/70 
f 152/112/75 142/106/69 145/13/69 153/27/75 
f 154/113/96 55/49/96 54/40/96 155/39/96 
s 2
f 156/114/97 32/32/98 31/31/97 157/73/97 
f 96/41/99 95/79/99 39/37/99 38/30/99 
f 158/115/22 154/113/22 155/39/22 159/80/100 
f 86/48/101 85/74/102 41/35/102 44/40/103 
s 3
f 135/65/104 134/64/104 133/61/104 160/60/104 
s 4
f 161/116/105 70/62/106 69/61/107 162/71/108 
f 82/68/1 81/72/1 135/65/1 160/60/1 
s 8
f 138/104/109 161/116/109 162/71/110 139/6/111 
s 4
f 140/105/112 156/114/112 157/73/112 141/10/112 
f 149/110/61 158/115/61 159/80/61 150/22/61 
s off
f 14/14/113 13/13/113 145/13/113 144/14/113 
f 13/13/114 27/27/114 153/27/114 145/13/114 
f 27/27/113 18/18/113 147/18/113 153/27/113 
f 18/18/113 17/17/113 92/17/113 147/18/113 
f 17/17/113 96/41/113 45/41/113 92/17/113 
f 96/41/113 38/30/113 30/30/113 45/41/113 
f 38/30/114 37/31/114 31/31/114 30/30/114 
f 37/31/113 83/73/113 157/73/113 31/31/113 
f 83/73/113 10/10/113 141/10/113 157/73/113 
f 10/10/113 9/9/113 90/9/113 141/10/113 
f 9/9/113 86/48/113 53/48/113 90/9/113 
f 86/48/113 44/40/113 54/40/113 53/48/113 
f 44/40/114 43/39/114 155/39/114 54/40/114 
f 43/39/113 97/80/113 159/80/113 155/39/113 
f 97/80/113 22/22/113 150/22/113 159/80/113 
f 22/22/113 21/21/113 151/21/113 150/22/113 
f 21/21/113 26/26/113 60/26/113 151/21/113 
f 26/52/113 57/51/113 61/51/113 60/52/113 
f 57/51/115 82/68/115 76/68/115 61/51/115 
f 82/68/116 160/60/116 68/60/116 76/68/116 
f 160/60/117 133/61/117 69/61/117 68/60/117 
f 133/61/118 79/71/118 162/71/118 69/61/118 
f 79/71/119 6/6/119 139/6/119 162/71/119 
f 6/6/113 5/5/113 100/5/113 139/6/113 
f 5/5/113 2/82/113 101/82/113 100/5/113 
f 2/2/120 1/1/120 137/1/120 101/2/120 
# 130 polygons

