# 3ds Max Wavefront OBJ Exporter v0.97b - (c)2007 guruware
# File Created: 23.06.2015 23:59:27

mtllib rail.mtl

#
# object rail_001
#

v  -2.596966 -2.197320 -99.522369
v  1.012348 -2.755879 -99.522369
v  -1.967762 1.756084 -99.522369
v  1.641552 1.197524 -99.522369
v  -1.967762 -2.755879 100.477631
v  1.641552 -2.197320 100.477631
v  -2.596966 1.197524 100.477631
v  1.012348 1.756084 100.477631
v  -1.351018 1.756084 -99.522369
v  0.395604 1.756084 -99.522369
v  0.395604 -2.755879 -99.522369
v  -1.351018 -2.755879 -99.522369
v  -1.351018 -2.755879 100.477631
v  0.395604 -2.755879 100.477631
v  0.395604 1.756084 100.477631
v  -1.351018 1.756084 100.477631
v  -2.596966 0.109217 -99.522369
v  1.641552 0.109217 -99.522369
v  1.641552 0.109217 100.477631
v  -2.596966 0.109217 100.477631
v  0.395604 0.990084 100.477631
v  -1.351018 0.990084 100.477631
v  1.012348 1.756084 -99.522369
v  -1.967762 -2.755879 -99.522369
v  1.012348 -2.755879 100.477631
v  -1.967762 1.756084 100.477631
v  1.012348 0.109217 100.477631
v  -1.967762 0.109217 100.477631
v  -2.596966 -1.939327 -99.522369
v  1.641552 -1.939327 100.477631
v  0.395604 -1.939327 100.477631
v  1.641552 -1.939327 -99.522369
v  -2.596966 -1.939327 100.477631
v  -1.351018 -1.939327 100.477631
v  1.012348 -1.939327 100.477631
v  -1.967762 -1.939327 100.477631
v  -2.596966 1.197524 -99.522369
v  1.641552 1.197524 100.477631
v  1.641552 -2.197320 -99.522369
v  -2.596966 -2.197320 100.477631
# 40 vertices

vn 1.000000 0.000000 -0.000000
vn 1.000000 0.000000 -0.000000
vn 1.000000 0.000000 -0.000000
vn 1.000000 0.000000 -0.000000
vn 0.000000 1.000000 0.000000
vn 0.000000 1.000000 0.000000
vn 0.000000 1.000000 0.000000
vn 0.000000 1.000000 0.000000
vn -1.000000 0.000000 -0.000000
vn -1.000000 0.000000 -0.000000
vn -1.000000 0.000000 -0.000000
vn -1.000000 0.000000 -0.000000
vn 0.000000 -0.000000 1.000000
vn 0.000000 -0.000000 1.000000
vn 0.000000 -0.000000 1.000000
vn 0.000000 -0.000000 1.000000
vn 0.000000 -0.000000 1.000000
vn 0.000000 -0.000000 1.000000
vn 0.000000 -0.000000 1.000000
vn 0.000000 -0.000000 1.000000
vn 0.000000 -1.000000 -0.000000
vn 0.000000 -1.000000 -0.000000
vn 0.000000 -1.000000 -0.000000
vn 0.000000 -1.000000 -0.000000
vn 0.000000 -1.000000 -0.000000
vn 0.000000 -1.000000 -0.000000
vn 0.000000 -1.000000 -0.000000
vn 0.000000 -1.000000 -0.000000
vn 0.000000 1.000000 0.000000
vn 0.000000 1.000000 0.000000
vn 0.000000 1.000000 0.000000
vn 0.000000 1.000000 0.000000
vn 0.000000 1.000000 0.000000
vn 0.000000 1.000000 0.000000
vn 0.000000 1.000000 0.000000
vn 0.000000 1.000000 0.000000
vn 0.000000 -0.000000 1.000000
vn 0.000000 -0.000000 1.000000
vn 0.000000 -0.000000 1.000000
vn 0.000000 -0.000000 1.000000
vn 1.000000 0.000000 -0.000000
vn 1.000000 0.000000 -0.000000
vn 1.000000 0.000000 -0.000000
vn 1.000000 0.000000 -0.000000
vn -1.000000 0.000000 -0.000000
vn -1.000000 0.000000 -0.000000
vn -1.000000 0.000000 -0.000000
vn -1.000000 0.000000 -0.000000
vn 0.000000 -0.000000 1.000000
vn 0.000000 -0.000000 1.000000
vn 0.000000 -0.000000 1.000000
vn 0.000000 -0.000000 1.000000
vn 0.000000 -0.000000 1.000000
vn 0.000000 -0.000000 1.000000
vn 0.000000 -0.000000 1.000000
vn 0.000000 -0.000000 1.000000
vn 0.000000 -0.000000 1.000000
vn 0.000000 -0.000000 1.000000
vn 0.000000 -0.000000 1.000000
vn 0.000000 -0.000000 1.000000
vn 0.000000 -0.000000 1.000000
vn 0.000000 -0.000000 1.000000
vn 0.000000 -0.000000 1.000000
vn 0.000000 -0.000000 1.000000
vn 0.000000 -0.000000 1.000000
vn 0.000000 -0.000000 1.000000
vn 0.000000 -0.000000 1.000000
vn 0.000000 -0.000000 1.000000
vn 0.000000 -0.000000 1.000000
vn 0.000000 -0.000000 1.000000
vn 0.000000 -0.000000 1.000000
vn 0.000000 -0.000000 1.000000
vn 1.000000 0.000000 -0.000000
vn 1.000000 0.000000 -0.000000
vn 1.000000 0.000000 -0.000000
vn 1.000000 0.000000 -0.000000
vn -1.000000 0.000000 -0.000000
vn -1.000000 0.000000 -0.000000
vn -1.000000 0.000000 -0.000000
vn -1.000000 0.000000 -0.000000
vn 0.000000 -0.000000 1.000000
vn 0.000000 -0.000000 1.000000
vn 0.000000 -0.000000 1.000000
vn 0.000000 -0.000000 1.000000
vn 0.000000 -0.000000 1.000000
vn 0.000000 -0.000000 1.000000
vn 0.000000 -0.000000 1.000000
vn 0.000000 -0.000000 1.000000
vn 0.663877 0.747842 0.000000
vn 0.663877 0.747842 0.000000
vn 0.663877 0.747842 0.000000
vn 0.663877 0.747842 0.000000
vn -0.663877 0.747842 0.000000
vn -0.663877 0.747842 0.000000
vn -0.663877 0.747842 0.000000
vn -0.663877 0.747842 0.000000
vn 0.663877 -0.747842 -0.000000
vn 0.663877 -0.747842 -0.000000
vn 0.663877 -0.747842 -0.000000
vn 0.663877 -0.747842 -0.000000
vn -0.663877 -0.747842 -0.000000
vn -0.663877 -0.747842 -0.000000
vn -0.663877 -0.747842 -0.000000
vn -0.663877 -0.747842 -0.000000
# 104 vertex normals

vt 0.990193 0.919486 0.000000
vt 0.990186 0.920730 0.000000
vt 0.026368 0.913692 0.000000
vt 0.026376 0.912448 0.000000
vt 0.989977 0.942875 0.000000
vt 0.989888 0.951293 0.000000
vt 0.026062 0.944124 0.000000
vt 0.026134 0.935742 0.000000
vt 0.989838 0.958319 0.000000
vt 0.989803 0.963564 0.000000
vt 0.025985 0.956389 0.000000
vt 0.026021 0.951145 0.000000
vt 0.004292 0.934961 0.000000
vt 0.004250 0.931989 0.000000
vt 0.008184 0.931933 0.000000
vt 0.008227 0.934905 0.000000
vt 0.026044 0.947091 0.000000
vt 0.018105 0.947041 0.000000
vt 0.022361 0.944085 0.000000
vt 0.990243 0.912459 0.000000
vt 0.990222 0.915431 0.000000
vt 0.025858 0.974530 0.000000
vt 0.025880 0.971558 0.000000
vt 0.989697 0.978734 0.000000
vt 0.989675 0.981706 0.000000
vt 0.989864 0.954265 0.000000
vt 0.026257 0.932869 0.000000
vt 0.990037 0.939903 0.000000
vt 0.022420 0.935597 0.000000
vt 0.990116 0.930602 0.000000
vt 0.990082 0.935848 0.000000
vt 0.023979 0.929697 0.000000
vt 0.026299 0.923566 0.000000
vt 0.989733 0.973436 0.000000
vt 0.025915 0.966260 0.000000
vt 0.018263 0.932184 0.000000
vt 0.008230 0.947010 0.000000
vt 0.008239 0.944038 0.000000
vt 0.989725 0.974680 0.000000
vt 0.006978 0.950039 0.000000
vt 0.008141 0.928901 0.000000
vt 0.006898 0.928919 0.000000
vt 0.018091 0.950074 0.000000
vt 0.023334 0.950106 0.000000
vt 0.026425 0.905420 0.000000
vt 0.026404 0.908392 0.000000
vt 0.004303 0.944027 0.000000
vt 0.004295 0.946999 0.000000
vt 0.026264 0.928812 0.000000
vt 0.018011 0.929339 0.000000
vt 0.008221 0.950043 0.000000
vt 0.025908 0.967503 0.000000
# 52 texture coords

g rail_001
usemtl wire_177148027
s 2
f 32/2/1 30/3/2 6/4/3 39/1/4 
f 9/6/5 16/7/6 15/8/7 10/5/8 
f 17/10/9 20/11/10 7/12/11 37/9/12 
s 1
f 25/14/13 35/15/14 31/16/15 14/13/16 
f 26/17/17 28/18/18 22/19/19 16/7/20 
s 2
f 2/21/21 25/46/22 14/45/23 11/20/24 
f 5/23/25 24/24/26 12/25/27 13/22/28 
f 3/26/29 26/17/30 16/7/31 9/6/32 
f 8/27/33 23/28/34 10/5/35 15/8/36 
s 1
f 15/8/37 16/7/38 22/19/39 21/29/40 
s 2
f 4/31/41 38/49/42 19/33/43 18/30/44 
f 29/34/45 33/35/46 20/11/47 17/10/48 
s 1
f 19/50/49 38/32/50 8/27/51 27/36/52 
f 33/51/53 36/37/54 28/18/55 20/43/56 
f 6/42/57 30/41/58 35/15/59 25/14/60 
f 7/44/61 20/43/62 28/18/63 26/17/64 
f 15/8/65 21/29/66 27/36/67 8/27/68 
f 13/47/69 34/38/70 36/37/71 5/48/72 
s 2
f 18/30/73 19/33/74 30/3/75 32/2/76 
f 1/39/77 40/52/78 33/35/79 29/34/80 
s 1
f 33/51/81 40/40/82 5/48/83 36/37/84 
f 19/50/85 27/36/86 35/15/87 30/41/88 
s 4
f 4/31/89 23/28/90 8/27/91 38/49/92 
f 3/26/93 37/9/94 7/12/95 26/17/96 
f 2/21/97 39/1/98 6/4/99 25/46/100 
f 5/23/101 40/52/102 1/39/103 24/24/104 
# 26 polygons

